<svg version="1.1" xmlns="http://www.w3.org/2000/svg" viewBox="0 0 151.00029101427026 135.20054550518933" width="151.00029101427026" height="135.20054550518933">
  <!-- svg-source:excalidraw -->
  
  <defs>
    <style class="style-fonts">
      @font-face {
        font-family: "Virgil";
        src: url("https://excalidraw.com/Virgil.woff2");
      }
      @font-face {
        font-family: "Cascadia";
        src: url("https://excalidraw.com/Cascadia.woff2");
      }
    </style>
  </defs>
  <g stroke-linecap="round" transform="translate(54.522154482665655 10) rotate(0 22.0204763082794 21.274019484269957)"><path d="M30.42 1.51 C34.81 2.87, 40.01 7.76, 42.13 11.83 C44.26 15.9, 44.14 21.5, 43.17 25.94 C42.2 30.38, 40 35.69, 36.31 38.49 C32.63 41.28, 25.89 42.75, 21.07 42.7 C16.25 42.64, 10.75 41.28, 7.41 38.17 C4.06 35.05, 1.64 28.57, 1 23.99 C0.37 19.42, 1.13 14.45, 3.6 10.71 C6.07 6.98, 11.11 3.08, 15.83 1.59 C20.54 0.11, 28.71 1.41, 31.87 1.81 C35.03 2.21, 34.76 3.45, 34.77 4.02 M12.75 2.11 C16.52 0.07, 23.07 -0.95, 27.47 0.18 C31.86 1.31, 36.16 4.87, 39.13 8.9 C42.1 12.94, 45.42 20.02, 45.28 24.41 C45.15 28.81, 41.8 32.23, 38.29 35.28 C34.78 38.32, 29.26 41.91, 24.24 42.68 C19.22 43.46, 12.17 42.41, 8.18 39.94 C4.18 37.47, 1.26 32.59, 0.27 27.86 C-0.72 23.14, 0.34 15.73, 2.23 11.57 C4.12 7.42, 10 4.62, 11.62 2.95 C13.24 1.28, 11.55 1.61, 11.96 1.57" stroke="none" stroke-width="0" fill="#0ea5e9"></path><path d="M12.03 2.26 C15.97 0.45, 22.47 0.54, 27.04 1.52 C31.6 2.51, 36.66 4.51, 39.43 8.18 C42.2 11.85, 44.11 19.04, 43.67 23.54 C43.22 28.05, 39.94 31.92, 36.76 35.22 C33.58 38.52, 29.23 42.63, 24.59 43.33 C19.95 44.04, 13.05 42.17, 8.92 39.47 C4.8 36.78, 1.18 31.55, -0.14 27.18 C-1.46 22.8, -1.63 17.57, 1.03 13.23 C3.68 8.88, 12.8 3.11, 15.8 1.1 C18.8 -0.91, 18.87 0.89, 19.02 1.19 M32.01 1.96 C36.31 4.06, 41.65 9.76, 43.66 14.26 C45.67 18.77, 45.89 24.99, 44.05 28.98 C42.2 32.96, 36.9 35.78, 32.59 38.15 C28.28 40.53, 22.73 43.64, 18.19 43.22 C13.64 42.8, 8.6 39.14, 5.34 35.64 C2.08 32.14, -1.47 26.86, -1.39 22.2 C-1.31 17.53, 2.68 11.12, 5.81 7.67 C8.94 4.22, 13.1 2.47, 17.37 1.49 C21.64 0.52, 28.86 1.72, 31.45 1.83 C34.05 1.94, 33.01 1.8, 32.94 2.16" stroke="#17171b" stroke-width="4" fill="none"></path></g><g stroke-linecap="round" transform="translate(10.000000000000227 82.16194038009132) rotate(0 22.0204763082794 21.274019484269957)"><path d="M23.99 0.89 C28.53 0.85, 34.96 2.61, 38.37 5.78 C41.79 8.95, 44.08 15.39, 44.47 19.92 C44.85 24.46, 43.45 29.37, 40.68 33 C37.92 36.64, 32.39 40.34, 27.88 41.73 C23.37 43.11, 18.01 43.15, 13.62 41.31 C9.23 39.46, 3.62 34.79, 1.55 30.68 C-0.51 26.57, -0.16 21.26, 1.22 16.66 C2.61 12.06, 5.41 5.7, 9.85 3.07 C14.29 0.45, 24.1 0.83, 27.86 0.92 C31.62 1.01, 32.26 3.42, 32.41 3.63 M27.39 0.11 C31.81 0.72, 36.42 3.6, 39.13 7.57 C41.84 11.54, 43.66 19.07, 43.64 23.95 C43.63 28.82, 42.43 33.63, 39.04 36.8 C35.64 39.97, 28.12 42.75, 23.29 42.94 C18.46 43.14, 13.55 40.66, 10.04 37.98 C6.54 35.3, 3.42 31.06, 2.27 26.87 C1.12 22.68, 1.56 17.16, 3.14 12.84 C4.71 8.51, 7.53 3.15, 11.71 0.91 C15.9 -1.32, 25.79 -0.61, 28.24 -0.56 C30.68 -0.5, 26.82 0.63, 26.36 1.24" stroke="none" stroke-width="0" fill="#0284c7"></path><path d="M15.96 0.38 C20.47 -1.11, 27.48 -0.6, 31.65 1.25 C35.82 3.1, 38.93 7.47, 40.99 11.47 C43.05 15.48, 45.17 20.71, 44.03 25.27 C42.89 29.84, 37.9 36.07, 34.15 38.84 C30.41 41.6, 26 42.4, 21.56 41.89 C17.12 41.37, 11.06 38.96, 7.53 35.76 C4 32.57, 0.88 27.01, 0.36 22.73 C-0.15 18.44, 1.69 13.62, 4.43 10.08 C7.18 6.54, 14.53 2.89, 16.84 1.47 C19.15 0.06, 18.24 1.23, 18.29 1.59 M23.17 1.39 C28.02 1.6, 34.86 4.25, 38.55 6.97 C42.24 9.7, 45.21 13.52, 45.32 17.71 C45.44 21.91, 41.99 28.2, 39.26 32.12 C36.53 36.03, 33.3 40.01, 28.92 41.21 C24.54 42.41, 17.44 40.84, 12.97 39.29 C8.5 37.74, 4.29 35.74, 2.12 31.91 C-0.06 28.09, -1.4 21.09, -0.08 16.34 C1.24 11.59, 6.2 5.95, 10.05 3.41 C13.91 0.88, 20.89 1.6, 23.04 1.1 C25.19 0.6, 22.95 0.29, 22.96 0.42" stroke="#17171b" stroke-width="4" fill="none"></path></g><g stroke-linecap="round" transform="translate(96.95933839771146 82.65250653664941) rotate(0 22.0204763082794 21.274019484269957)"><path d="M28.26 1.45 C32.52 2.33, 36.75 5.69, 39.45 9.36 C42.16 13.04, 44.85 18.99, 44.49 23.48 C44.14 27.97, 40.72 32.97, 37.32 36.28 C33.93 39.59, 28.62 43, 24.12 43.34 C19.63 43.68, 14.18 40.98, 10.37 38.34 C6.55 35.7, 2.49 31.74, 1.23 27.52 C-0.03 23.29, 1.09 17.37, 2.83 12.99 C4.57 8.62, 6.89 3.17, 11.68 1.27 C16.47 -0.62, 27.6 0.95, 31.57 1.65 C35.55 2.35, 35.83 5, 35.54 5.48 M17.31 -0.21 C21.51 -1.4, 27.17 -0.18, 31.6 2.3 C36.04 4.78, 41.9 10.57, 43.92 14.68 C45.94 18.8, 45.38 22.8, 43.72 26.97 C42.05 31.14, 38.27 36.91, 33.92 39.69 C29.56 42.47, 22.4 44.18, 17.58 43.66 C12.76 43.13, 7.92 40.3, 5 36.55 C2.08 32.81, 0.31 25.77, 0.07 21.17 C-0.17 16.57, 0.82 12.54, 3.58 8.96 C6.34 5.38, 14.22 1.23, 16.64 -0.32 C19.06 -1.88, 17.77 -1.04, 18.11 -0.36" stroke="none" stroke-width="0" fill="#228be6"></path><path d="M11.67 3.09 C15.55 0.76, 21.99 -1.17, 26.61 -0.16 C31.23 0.86, 36.66 5.57, 39.39 9.19 C42.13 12.81, 43.19 16.98, 43.04 21.58 C42.88 26.17, 41.66 33.2, 38.48 36.78 C35.29 40.36, 28.84 42.66, 23.92 43.08 C19 43.49, 12.95 41.74, 8.95 39.25 C4.96 36.76, 1.06 32.52, -0.04 28.12 C-1.14 23.73, -0.02 17.22, 2.36 12.89 C4.74 8.56, 12.03 4.04, 14.22 2.14 C16.4 0.25, 15.33 1.23, 15.49 1.51 M16.62 2.24 C20.98 0.96, 27.41 1.63, 31.33 2.98 C35.25 4.33, 38.29 6.4, 40.15 10.34 C42.01 14.28, 43.34 22, 42.48 26.61 C41.62 31.22, 38.79 35.36, 35 38 C31.22 40.64, 24.17 42.71, 19.76 42.43 C15.36 42.14, 11.78 39.18, 8.56 36.3 C5.33 33.42, 1.39 29.61, 0.42 25.13 C-0.54 20.65, 0.09 13.53, 2.74 9.41 C5.4 5.3, 14.23 1.82, 16.33 0.44 C18.44 -0.94, 15.48 0.67, 15.36 1.12" stroke="#17171b" stroke-width="4" fill="none"></path></g><g stroke-linecap="round"><g transform="translate(61.44651245936916 48.53202029307829) rotate(0 -9.659951882616042 17.077760936842196)"><path d="M0 0 C-3.22 5.69, -16.1 28.46, -19.32 34.16 M0 0 C-3.22 5.69, -16.1 28.46, -19.32 34.16" stroke="#17171b" stroke-width="4" fill="none"></path></g></g><mask></mask><g stroke-linecap="round"><g transform="translate(88.89480226335309 49.58232672163456) rotate(0 9.207722727747296 17.597051490839192)"><path d="M0 0 C3.07 5.87, 15.35 29.33, 18.42 35.19 M0 0 C3.07 5.87, 15.35 29.33, 18.42 35.19" stroke="#17171b" stroke-width="4" fill="none"></path></g></g><mask></mask></svg>